<?xml version="1.0" standalone="no"?>
<!DOCTYPE svg PUBLIC "-//W3C//DTD SVG 20010904//EN"
 "http://www.w3.org/TR/2001/REC-SVG-20010904/DTD/svg10.dtd">
<svg version="1.0" xmlns="http://www.w3.org/2000/svg"
 width="700.000000pt" height="700.000000pt" viewBox="0 0 700.000000 700.000000"
 preserveAspectRatio="xMidYMid meet">
<metadata>
Created by potrace 1.11, written by Peter Selinger 2001-2013
</metadata>
<g transform="translate(0.000000,700.000000) scale(0.100000,-0.100000)"
fill="#000000" stroke="none">
<path d="M319 6985 c-117 -43 -223 -136 -280 -246 l-34 -64 0 -3200 0 -3200
29 -55 c38 -74 87 -133 150 -180 l53 -40 3288 0 3288 0 51 39 c54 42 77 65
114 118 l22 31 0 3289 0 3289 -48 59 c-55 69 -132 126 -209 155 -54 20 -68 20
-3221 19 -2584 0 -3174 -3 -3203 -14z"/>
</g>
</svg>
