<?xml version="1.0" standalone="no"?>
<!DOCTYPE svg PUBLIC "-//W3C//DTD SVG 20010904//EN"
 "http://www.w3.org/TR/2001/REC-SVG-20010904/DTD/svg10.dtd">
<svg version="1.0" xmlns="http://www.w3.org/2000/svg"
 width="700.000000pt" height="700.000000pt" viewBox="0 0 700.000000 700.000000"
 preserveAspectRatio="xMidYMid meet">
<metadata>
Created by potrace 1.11, written by Peter Selinger 2001-2013
</metadata>
<g transform="translate(0.000000,700.000000) scale(0.100000,-0.100000)"
fill="#000000" stroke="none">
<path d="M410 6771 c-69 -21 -130 -73 -166 -141 -18 -34 -19 -131 -19 -3155
l0 -3120 22 -41 c12 -23 41 -58 64 -77 85 -73 -206 -67 3209 -67 3460 0 3140
-8 3229 79 89 87 81 -241 81 3226 0 3458 8 3138 -79 3225 -89 88 250 80 -3230
79 -1697 0 -3097 -4 -3111 -8z m4338 -567 c340 -70 608 -333 676 -666 20 -99
20 -257 0 -356 -61 -298 -284 -545 -584 -644 -89 -30 -105 -32 -255 -34 l-160
-2 -79 -343 c-43 -189 -80 -345 -81 -346 -1 -2 -33 8 -72 21 -67 23 -214 58
-295 71 l-37 6 165 331 c90 183 164 337 164 343 0 5 -28 26 -62 45 -131 75
-255 216 -327 372 -60 129 -75 201 -75 358 0 157 15 229 75 358 73 159 184
284 333 377 82 51 207 99 296 114 89 14 235 12 318 -5z m-2559 -879 c143 -34
291 -145 362 -271 l34 -62 450 143 450 143 16 -92 c9 -50 22 -110 29 -134 7
-23 11 -44 9 -46 -4 -4 -901 -196 -914 -196 -3 0 -5 -26 -5 -58 0 -170 -116
-370 -265 -458 -230 -134 -514 -100 -694 83 -187 191 -220 463 -84 692 43 73
138 164 212 204 111 61 273 82 400 52z m1751 -1784 c530 -122 934 -544 1024
-1070 20 -120 21 -331 1 -447 -73 -421 -340 -781 -723 -973 -288 -145 -669
-173 -986 -75 -365 114 -677 400 -827 759 -64 153 -90 276 -96 455 -9 247 32
442 137 650 200 396 565 654 1025 724 75 11 362 -3 445 -23z"/>
</g>
</svg>
